HIERARCHY
ROOT Hips
{
	OFFSET -0.179506 -22.333345 2.821913
	CHANNELS 6 Xposition Yposition Zposition Zrotation Yrotation Xrotation 
	JOINT LeftUpLeg
	{
		OFFSET 6.951974 -9.140623 -0.681533
		CHANNELS 3 Zrotation Yrotation Xrotation
		JOINT LeftLeg
		{
			OFFSET 3.427654 -37.519855 -0.449580
			CHANNELS 3 Zrotation Yrotation Xrotation
			JOINT LeftFoot
			{
				OFFSET -1.359570 -39.796059 -4.369333
				CHANNELS 3 Zrotation Yrotation Xrotation
				JOINT LeftToe
				{
					OFFSET 2.635814 -5.579078 11.928840
					CHANNELS 3 Zrotation Yrotation Xrotation
					End Site
					{
						OFFSET 0.000000 0.000000 0.000000
					}
				}
			}
		}
	}
	JOINT RightUpLeg
	{
		OFFSET -6.767048 -9.052170 -0.431982
		CHANNELS 3 Zrotation Yrotation Xrotation
		JOINT RightLeg
		{
			OFFSET -3.829005 -38.256897 -0.885003
			CHANNELS 3 Zrotation Yrotation Xrotation
			JOINT RightFoot
			{
				OFFSET 1.577377 -39.841461 -4.231180
				CHANNELS 3 Zrotation Yrotation Xrotation
				JOINT RightToe
				{
					OFFSET -2.537174 -4.814398 12.334795
					CHANNELS 3 Zrotation Yrotation Xrotation
					End Site
					{
						OFFSET 0.000000 0.000000 0.000000
					}
				}
			}
		}
	}
	JOINT Spine
	{
		OFFSET -0.253288 10.896323 -2.669631
		CHANNELS 3 Zrotation Yrotation Xrotation
		JOINT Spine1
		{
			OFFSET 0.548704 13.518043 0.109247
			CHANNELS 3 Zrotation Yrotation Xrotation
			JOINT Spine2
			{
				OFFSET 0.145701 5.292222 2.542457
				CHANNELS 3 Zrotation Yrotation Xrotation
				JOINT Neck
				{
					OFFSET -0.277840 21.387037 -4.285703
					CHANNELS 3 Zrotation Yrotation Xrotation
					JOINT Head
					{
						OFFSET 0.515184 6.496960 5.134897
						CHANNELS 3 Zrotation Yrotation Xrotation
						End Site
						{
							OFFSET 0.000000 0.000000 0.000000
						}
					}
				}
				JOINT LeftShoulder
				{
					OFFSET 7.884473 12.174932 -3.408961
					CHANNELS 3 Zrotation Yrotation Xrotation
					JOINT LeftArm
					{
						OFFSET 9.097692 3.046888 -0.886815
						CHANNELS 3 Zrotation Yrotation Xrotation
						JOINT LeftForeArm
						{
							OFFSET 25.961220 -1.277207 -2.745643
							CHANNELS 3 Zrotation Yrotation Xrotation
							JOINT LeftHand
							{
								OFFSET 24.923361 0.898606 -0.117091
								CHANNELS 3 Zrotation Yrotation Xrotation
								End Site
								{
									OFFSET 0.000000 0.000000 0.000000
								}
							}
						}
					}
				}
				JOINT RightShoulder
				{
					OFFSET -8.175920 11.883285 -3.861528
					CHANNELS 3 Zrotation Yrotation Xrotation
					JOINT RightArm
					{
						OFFSET -9.601238 3.255117 -0.914307
						CHANNELS 3 Zrotation Yrotation Xrotation
						JOINT RightForeArm
						{
							OFFSET -25.374195 -1.332924 -2.140099
							CHANNELS 3 Zrotation Yrotation Xrotation
							JOINT RightHand
							{
								OFFSET -25.529810 0.777228 -0.555919
								CHANNELS 3 Zrotation Yrotation Xrotation
								End Site
								{
									OFFSET 0.000000 0.000000 0.000000
								}
							}
						}
					}
				}
			}
		}
	}
}
MOTION
Frames: 8
Frame Time: 0.033333
-0.179506 136.765198 2.821913 164.549881 50.565574 148.434831 23.232822 8.255737 -66.123307 -5.119467 18.609594 120.288326 4.069885 2.798216 0.685289 -1.182899 -0.824059 0.096906 -18.921290 -9.706392 -40.413112 4.247774 -7.716730 68.076681 5.489490 -3.470086 22.862562 1.502303 1.676759 -3.661945 -1.517223 4.318384 52.789593 6.229310 -2.558967 -3.591981 0.692850 -1.044527 0.119764 -16.852055 4.379247 -0.633530 -0.390548 7.351247 -13.327292 -5.163910 -14.303347 3.011987 -0.516179 1.063267 3.144283 -62.950429 -77.382518 61.378906 21.838391 -21.348726 -13.977933 7.865615 13.393999 5.052554 16.567894 -3.693142 3.208031 4.615560 79.086387 7.929278 -11.705502 19.177942 -0.961286 
3.663279 138.578735 0.757589 165.476177 50.700295 149.528832 23.260285 5.966514 -61.570216 -5.737401 17.923407 124.619784 2.010841 1.784085 6.287945 -1.133398 -0.949730 -0.098790 -19.229090 -8.895087 -33.617151 3.175826 -5.508200 59.014306 5.741627 -4.860342 25.678158 1.631119 1.817918 -4.013156 -2.368316 4.883860 45.224219 6.080799 -2.962746 -2.916710 0.859699 -0.939340 2.101566 -16.491610 4.641008 1.974591 -0.659774 8.353163 -12.606872 -4.469569 -8.079546 4.785902 1.032386 4.244775 6.043815 -85.135899 -75.111434 82.276120 21.593847 -23.156796 -14.951668 7.755119 7.939241 5.499855 17.368794 -7.680130 6.743434 34.866295 79.043155 39.437552 -8.911620 20.124405 1.577414 
7.966635 139.816971 -1.646216 165.739678 51.401856 151.975476 21.972160 3.758704 -54.852445 -7.867693 18.250325 125.972094 0.524309 2.280261 6.361232 -1.067249 -0.882661 -0.062308 -18.532396 -8.337741 -25.624046 3.134554 -3.326045 44.538819 7.279386 -7.485927 25.793330 1.317756 1.690445 -3.958426 -3.502468 5.030594 37.043001 5.593937 -3.227018 -3.341323 1.515543 -0.753714 4.386569 -16.495506 4.082801 4.020580 -0.676263 9.598191 -11.002933 -2.736691 -2.283350 6.540575 3.793384 7.855168 9.821192 -104.348523 -72.053790 100.242011 20.000898 -25.434276 -15.398171 7.126546 2.839647 6.279572 17.185915 -12.060066 9.879712 58.287083 77.147628 63.007667 -5.044394 20.634844 3.069524 
13.280204 140.046951 -4.443426 165.501710 51.771494 153.966653 18.612417 0.414395 -47.027996 -10.050786 17.797409 125.078147 0.285001 4.387808 5.451033 -0.953065 -0.965655 -0.133074 -16.364030 -7.509641 -16.801729 2.547008 -1.048330 28.809490 8.189085 -10.196422 25.441999 0.961542 1.594122 -3.664944 -4.321047 4.815176 29.036328 5.008228 -3.148236 -3.544678 2.206903 -0.637847 6.090769 -16.225112 2.447302 6.240633 0.109763 11.054469 -10.373859 -0.590585 2.986402 8.241161 5.707286 10.239783 13.502703 -117.575429 -68.502028 113.096655 17.773699 -27.464831 -15.324215 5.297405 -2.234509 7.329675 17.559758 -16.901516 12.222203 61.643159 73.473714 66.058110 -0.345612 19.823264 4.737316 
19.214512 138.650284 -9.427295 163.848704 51.906087 154.175168 14.525404 -2.324767 -40.534259 -11.714487 16.636371 122.394580 0.533510 6.524420 3.766237 -0.866248 -0.940945 -0.254178 -14.119211 -6.893398 -9.776699 1.769714 0.461774 18.686327 8.063487 -12.123264 20.340637 0.318003 1.416396 -3.312511 -4.346284 4.785386 23.215329 4.181705 -3.244584 -3.680177 2.532661 -0.456477 7.383244 -16.542574 0.893228 8.393008 -0.028994 11.306334 -10.406833 0.334693 6.606136 9.080671 6.732817 11.755759 15.653356 -124.392837 -66.860866 120.384984 14.394292 -28.153612 -14.140335 4.462566 -6.180700 8.155772 17.325500 -20.757377 13.790628 57.573554 70.747784 62.166020 3.501045 17.445778 5.843861 
25.040655 135.900146 -14.233810 163.413519 51.740031 155.092148 11.716159 -3.607120 -39.639625 -12.896881 15.595445 118.486478 0.899939 7.808902 3.334784 -0.595275 -0.974482 -0.328254 -11.651140 -5.997524 -5.695583 1.752538 2.195002 17.610873 5.989122 -12.597109 10.057504 0.297446 1.213094 -2.998167 -3.104760 5.121538 21.059360 3.671941 -3.668542 -4.131129 2.297082 -0.103976 8.411224 -16.756643 0.391198 8.192058 -0.320599 10.088606 -9.698841 0.077124 8.472611 8.963717 5.197811 12.394513 17.161257 -127.491135 -66.273421 125.265978 12.964020 -27.884084 -14.395060 5.146459 -7.646578 7.357291 18.527769 -22.790590 13.592928 44.422040 70.605560 50.415966 5.797828 15.183594 6.722712 
30.618765 132.704956 -19.128895 164.463267 52.427258 156.951380 10.142062 -4.703351 -40.938447 -13.174185 13.385077 107.362217 2.208151 8.878499 0.312395 -0.272690 -1.200544 -0.657655 -9.200168 -4.331047 -3.282510 1.672710 3.718559 20.661953 3.084626 -13.314462 0.040082 0.500987 1.149357 -3.051711 -1.726072 5.333550 22.261653 3.163152 -3.310922 -4.166307 1.713660 0.101147 8.220731 -15.736511 0.021707 6.139021 -0.906804 9.476107 -9.308958 -2.216321 8.126961 8.610749 1.901691 13.707341 17.915163 -121.342688 -66.550578 121.282904 11.735175 -27.798901 -13.480173 6.899046 -5.265197 6.864422 19.488084 -19.561585 11.978166 30.009147 65.279764 36.506095 6.742991 13.952693 9.125660 
36.319118 129.418777 -24.405420 166.056520 53.889949 158.838874 9.811045 -5.585917 -44.181601 -12.309364 10.478460 90.458514 3.318764 10.254855 -3.337133 0.658304 -1.622305 -0.965379 -7.195439 -3.489743 -1.326642 1.802670 3.839419 27.848347 0.081363 -14.970387 -13.329607 0.569223 1.308056 -3.465349 0.005678 6.699369 25.465811 2.524609 -2.756280 -3.542598 0.769509 1.002037 6.859697 -14.136810 1.483679 3.618239 -2.166167 7.375030 -9.290812 -7.692672 6.652015 7.797421 -3.936848 14.065764 18.804946 -106.106368 -67.202508 109.201713 13.055187 -26.692109 -12.549621 11.433148 -0.575123 6.302208 21.309675 -14.708813 10.210050 16.795000 58.058139 22.199234 2.558172 12.915013 8.290932 
